HIERARCHY
ROOT Hips
{
 OFFSET 0.000000 0.000000 0.000000
 CHANNELS 6 Xposition Yposition Zposition Yrotation Xrotation Zrotation
 JOINT Chest
 {
  OFFSET 0.000000 9.585900 0.002600
  CHANNELS 3 Yrotation Xrotation Zrotation
  JOINT Chest2
  {
   OFFSET 0.000000 9.601200 -0.005300
   CHANNELS 3 Yrotation Xrotation Zrotation
   JOINT Chest3
   {
    OFFSET 0.000000 9.561800 0.000000
    CHANNELS 3 Yrotation Xrotation Zrotation
    JOINT Chest4
    {
     OFFSET 0.000000 9.552100 0.000000
     CHANNELS 3 Yrotation Xrotation Zrotation
     JOINT Neck
     {
      OFFSET 0.000000 14.453000 0.000000
      CHANNELS 3 Yrotation Xrotation Zrotation
      JOINT Head
      {
       OFFSET 0.000000 8.936500 -0.011300
       CHANNELS 3 Yrotation Xrotation Zrotation
       End Site
       {
        OFFSET 0.000000 17.073600 -0.006000
       }
      }
     }
     JOINT RightCollar
     {
      OFFSET -2.921100 9.558500 0.000000
      CHANNELS 3 Yrotation Xrotation Zrotation
      JOINT RightShoulder
      {
       OFFSET -13.519700 0.000000 0.000000
       CHANNELS 3 Yrotation Xrotation Zrotation
       JOINT RightElbow
       {
        OFFSET 0.000000 -29.696600 0.000000
        CHANNELS 3 Yrotation Xrotation Zrotation
        JOINT RightWrist
        {
         OFFSET 0.000000 -24.004700 0.000000
         CHANNELS 3 Yrotation Xrotation Zrotation
         End Site
         {
          OFFSET 0.000000 -17.728500 0.000000
         }
        }
       }
      }
     }
     JOINT LeftCollar
     {
      OFFSET 2.921100 9.558500 0.000000
      CHANNELS 3 Yrotation Xrotation Zrotation
      JOINT LeftShoulder
      {
       OFFSET 13.519700 0.000000 0.000000
       CHANNELS 3 Yrotation Xrotation Zrotation
       JOINT LeftElbow
       {
        OFFSET 0.000000 -29.696600 0.000000
        CHANNELS 3 Yrotation Xrotation Zrotation
        JOINT LeftWrist
        {
         OFFSET 0.000000 -24.004700 0.000000
         CHANNELS 3 Yrotation Xrotation Zrotation
         End Site
         {
          OFFSET 0.000000 -17.728500 0.000000
         }
        }
       }
      }
     }
    }
   }
  }
 }
 JOINT RightHip
 {
  OFFSET -7.771700 -0.012900 -0.001300
  CHANNELS 3 Yrotation Xrotation Zrotation
  JOINT RightKnee
  {
   OFFSET 0.000000 -40.869800 0.001200
   CHANNELS 3 Yrotation Xrotation Zrotation
   JOINT RightAnkle
   {
    OFFSET 0.000000 -39.717900 0.002100
    CHANNELS 3 Yrotation Xrotation Zrotation
    JOINT RightToe
    {
     OFFSET 0.000000 -4.965400 11.033500
     CHANNELS 3 Yrotation Xrotation Zrotation
     End Site
     {
      OFFSET 0.000000 -1.423100 5.872300
     }
    }
   }
  }
 }
 JOINT LeftHip
 {
  OFFSET 7.771700 -0.012900 -0.001300
  CHANNELS 3 Yrotation Xrotation Zrotation
  JOINT LeftKnee
  {
   OFFSET 0.000000 -40.869800 0.001200
   CHANNELS 3 Yrotation Xrotation Zrotation
   JOINT LeftAnkle
   {
    OFFSET 0.000000 -39.717900 0.002100
    CHANNELS 3 Yrotation Xrotation Zrotation
    JOINT LeftToe
    {
     OFFSET 0.000000 -4.965400 11.033500
     CHANNELS 3 Yrotation Xrotation Zrotation
     End Site
     {
      OFFSET 0.000000 -1.423100 5.872300
     }
    }
   }
  }
 }
}
MOTION
Frames: 13
Frame Time: 0.008333
0.000000 85.388000 0.000000 0.000000 -5.767877 0.000000 0.000000 11.653817 0.000000 0.000000 -5.885947 0.000000 0.000000 -0.000000 0.000000 0.000000 -0.000000 0.000000 0.000000 12.528835 0.000000 0.000000 0.711642 0.000000 0.000000 -0.000000 0.000000 0.000000 0.000000 -90.000000 0.000000 -2.309062 0.000000 0.000000 2.309062 0.000000 0.000000 -0.000000 0.000000 0.000000 -0.000000 90.000000 0.000000 -2.309062 0.000000 0.000000 2.309062 0.000000 0.000000 8.520406 0.000000 0.000000 1.905762 0.000000 -0.000000 -4.658285 0.000000 0.000000 -0.000000 0.000000 0.000000 8.520406 0.000000 0.000000 1.905762 0.000000 -0.000000 -4.658285 0.000000 0.000000 -0.000000 0.000000
-5.858701 55.402787 30.956962 177.787105 -31.085159 -10.849986 -0.544406 13.082477 7.161480 -0.431173 7.462322 3.136728 -0.487780 9.331672 3.860977 -0.434603 7.462924 3.110338 14.529893 26.119102 -3.746564 17.707105 4.492307 -7.657256 -1.234944 6.203526 -2.070429 -16.421564 -8.674437 4.845033 15.477573 -77.021357 1.110990 9.728677 -8.442603 -17.697954 -10.778330 4.807896 -3.772786 5.670093 -1.007658 -0.087111 -102.306630 -27.510410 121.415116 -2.700823 -55.296849 33.344303 -18.337623 -34.963181 8.896774 27.274517 84.867974 23.051332 0.118804 -16.812738 0.835643 -0.515233 1.628295 -0.218306 -15.849625 -46.153839 18.340842 175.412403 80.150936 170.857604 -2.077431 -17.714488 1.104926 -0.050577 -0.514388 -0.050954
-5.865309 55.403398 30.961076 177.765652 -31.083191 -10.828974 -0.533485 13.084182 7.134772 -0.426825 7.454348 3.127003 -0.484824 9.341891 3.841681 -0.430736 7.463920 3.097446 14.394235 26.038520 -3.737891 17.531859 4.360473 -7.614165 -1.228678 6.231845 -2.045284 -16.410115 -8.720506 4.865640 15.163168 -76.990300 1.410650 9.712952 -8.395086 -17.675382 -10.739906 4.834063 -3.753488 5.666572 -0.877218 -0.131142 -102.160633 -27.581307 121.342436 -2.704557 -55.360985 33.134868 -18.314330 -34.973668 8.890926 27.230734 84.863856 22.995667 0.113425 -16.812705 0.842529 -0.521986 1.632022 -0.215623 -15.823032 -46.160415 18.311836 175.369018 80.157369 170.822350 -2.064606 -17.710344 1.095423 -0.046499 -0.514842 -0.041527
-5.869649 55.404512 30.964885 177.759723 -31.080542 -10.830793 -0.529058 13.094334 7.122895 -0.427594 7.461223 3.091620 -0.471991 9.342715 3.846327 -0.426872 7.467140 3.083919 14.240936 25.915267 -3.722870 17.332100 4.169875 -7.559657 -1.221799 6.258851 -2.024282 -16.387423 -8.778376 4.857692 14.787093 -76.944364 1.779136 9.732852 -8.415804 -17.692280 -10.695698 4.853714 -3.733621 5.656595 -0.752477 -0.154943 -102.069185 -27.650735 121.308967 -2.683377 -55.423109 32.910024 -18.313041 -34.972970 8.902616 27.209669 84.850843 22.958573 0.110268 -16.809870 0.857387 -0.525505 1.634064 -0.220661 -15.824928 -46.163903 18.302968 175.347280 80.160669 170.814058 -2.047708 -17.707565 1.078964 -0.043778 -0.514238 -0.038828
-5.875247 55.405180 30.967486 177.752506 -31.078339 -10.822397 -0.521464 13.109899 7.102237 -0.426358 7.446574 3.100808 -0.470601 9.351270 3.829716 -0.425795 7.490418 3.044182 14.061596 25.752613 -3.709150 17.099585 3.924567 -7.500429 -1.211948 6.285585 -2.007461 -16.392558 -8.825747 4.911521 14.782681 -76.934195 1.784691 9.728407 -8.413464 -17.693714 -10.644614 4.869981 -3.716473 5.642646 -0.639844 -0.162200 -102.027346 -27.706141 121.307705 -2.647247 -55.479607 32.692568 -18.304954 -34.977438 8.899779 27.205509 84.845514 22.944683 0.101477 -16.809929 0.865637 -0.521505 1.635883 -0.221748 -15.808675 -46.169805 18.282444 175.287726 80.163248 170.764331 -2.043677 -17.704979 1.072780 -0.044428 -0.514225 -0.036991
-5.881510 55.404158 30.970471 177.739517 -31.062511 -10.803284 -0.509380 13.116132 7.073700 -0.424855 7.446041 3.087642 -0.459706 9.376939 3.796922 -0.421857 7.462208 3.078284 13.840608 25.595911 -3.741170 16.833307 3.636761 -7.449951 -1.202489 6.337021 -2.029689 -16.365984 -8.862715 4.875978 14.403319 -76.967736 2.138232 9.753357 -8.403577 -17.700346 -10.595040 4.903781 -3.744729 5.629057 -0.544179 -0.151360 -102.036391 -27.751310 121.335057 -2.596759 -55.523047 32.491589 -18.289218 -35.001244 8.891599 27.225753 84.842111 22.957347 0.096927 -16.812501 0.866432 -0.521319 1.640270 -0.216033 -15.786337 -46.192210 18.257343 175.227261 80.165910 170.712455 -2.041760 -17.703387 1.070170 -0.044636 -0.514073 -0.031161
-5.886174 55.403532 30.970687 177.734411 -31.052218 -10.791983 -0.495218 13.133689 7.048223 -0.426208 7.448391 3.076973 -0.437735 9.407025 3.759717 -0.411217 7.473775 3.059539 13.613717 25.367286 -3.746949 16.542595 3.324355 -7.416923 -1.194988 6.340730 -1.997157 -16.356185 -8.890448 4.859125 14.259075 -76.998394 2.287100 9.811203 -8.402280 -17.718368 -10.555967 4.901478 -3.715337 5.621646 -0.466068 -0.122950 -102.101608 -27.800589 121.385885 -2.530719 -55.549530 32.311531 -18.277903 -35.015508 8.886347 27.253705 84.839237 22.976625 0.088388 -16.815058 0.878030 -0.518551 1.639444 -0.222126 -15.773109 -46.205407 18.239999 175.186071 80.165456 170.674954 -2.038749 -17.706626 1.077997 -0.045307 -0.512143 -0.036637
-5.890539 55.402286 30.969142 177.732353 -31.037926 -10.777910 -0.474571 13.150597 7.020580 -0.428901 7.455180 3.059899 -0.406333 9.421458 3.740634 -0.394452 7.498998 3.024861 13.371662 25.129331 -3.767229 16.241817 3.006833 -7.400047 -1.201667 6.332017 -1.962430 -16.355527 -8.902657 4.856017 14.217569 -77.029723 2.329724 9.867671 -8.400170 -17.704372 -10.542192 4.895793 -3.686478 5.619106 -0.403122 -0.082059 -102.215217 -27.866862 121.448015 -2.457068 -55.560511 32.166121 -18.266552 -35.036828 8.876719 27.277160 84.845198 22.996161 0.075417 -16.815699 0.885349 -0.509475 1.636268 -0.220412 -15.740214 -46.227951 18.206012 175.123934 80.163122 170.629242 -2.037559 -17.709946 1.081956 -0.045872 -0.511917 -0.036837
-5.894493 55.400438 30.965949 177.731939 -31.018470 -10.761501 -0.448083 13.164132 6.991942 -0.378719 7.505580 3.009440 -0.412011 9.384202 3.762095 -0.378739 7.505554 3.009424 13.123630 24.917337 -3.812579 15.942678 2.698683 -7.391517 -1.217382 6.330502 -1.946094 -16.355367 -8.889390 4.846388 14.622854 -77.034116 1.965468 9.841042 -8.423911 -17.708760 -10.548814 4.909225 -3.684733 5.616825 -0.349072 -0.034611 -102.363261 -27.960556 121.509666 -2.384412 -55.556616 32.068920 -18.257068 -35.066226 8.865415 27.300145 84.857448 23.016737 0.063840 -16.811657 0.890943 -0.499261 1.625809 -0.217312 -15.724093 -46.251295 18.190148 175.072191 80.158285 170.574370 -2.048122 -17.715575 1.093700 -0.049270 -0.510763 -0.037551
-5.900886 55.399458 30.957720 177.746374 -31.013290 -10.732586 -0.451515 13.177783 6.948576 -0.345904 7.527337 2.983971 -0.390224 9.387915 3.743951 -0.361159 7.508621 2.994603 12.876000 24.717347 -3.857101 15.645125 2.407482 -7.381642 -1.237917 6.322347 -1.926213 -16.358556 -8.854747 4.831253 14.860990 -77.055930 1.748422 9.833243 -8.432112 -17.691822 -10.573133 4.930291 -3.688457 5.611640 -0.296258 0.013822 -102.537616 -28.090694 121.562680 -2.303733 -55.539537 32.005091 -18.234923 -35.089204 8.823179 27.292720 84.876654 23.012433 0.027775 -16.788774 0.892392 -0.462543 1.593174 -0.201954 -15.691828 -46.261207 18.130766 175.037361 80.155640 170.539539 -2.051281 -17.721177 1.099457 -0.048028 -0.512123 -0.036135
-5.904591 55.398471 30.948389 177.756203 -31.004149 -10.714862 -0.448575 13.187107 6.918435 -0.322997 7.537199 2.968966 -0.359038 9.396318 3.718126 -0.343741 7.508868 2.981184 12.625394 24.532333 -3.896479 15.343716 2.135754 -7.364528 -1.256557 6.310721 -1.905648 -16.367124 -8.810441 4.813119 15.030542 -77.081033 1.588911 9.848394 -8.425910 -17.655272 -10.608321 4.955751 -3.699127 5.596754 -0.241564 0.056129 -102.725197 -28.262662 121.598882 -2.202489 -55.505584 31.939767 -18.229293 -35.113542 8.807796 27.365993 84.919947 23.093239 -0.010490 -16.798280 0.880963 -0.421181 1.571600 -0.184591 -15.658850 -46.275240 18.092138 175.062013 80.149389 170.568897 -2.054033 -17.729920 1.111081 -0.047527 -0.514831 -0.033756
-5.928490 55.397701 30.928541 177.835242 -31.025886 -10.606876 -0.505499 13.252563 6.754847 -0.342998 7.509386 2.980777 -0.313021 9.416605 3.676190 -0.329291 7.506832 2.969194 12.372873 24.363996 -3.928026 15.039057 1.885347 -7.337309 -1.268550 6.301507 -1.887061 -16.378423 -8.766331 4.794297 15.223885 -77.092218 1.407083 9.865242 -8.418774 -17.618185 -10.644028 4.984211 -3.714845 5.568481 -0.183026 0.085035 -102.908930 -28.476621 121.609687 -2.075469 -55.451290 31.840984 -18.181098 -35.161740 8.634516 27.589456 85.006179 23.328210 -0.157420 -16.737160 0.854741 -0.272647 1.459886 -0.118382 -15.552753 -46.269332 17.853799 174.981039 80.162655 170.461437 -2.064271 -17.723347 1.138129 -0.037911 -0.520550 -0.027591
-5.972689 55.389304 30.911988 177.883391 -31.000788 -10.361552 -0.575152 13.261263 6.468118 -0.328062 7.507503 2.969038 -0.305271 9.405728 3.665337 -0.319001 7.502714 2.958208 12.124133 24.212850 -3.947752 14.737005 1.657288 -7.296821 -1.269552 6.298166 -1.873007 -16.391226 -8.725523 4.778223 15.411851 -77.090522 1.230837 9.885148 -8.412183 -17.583940 -10.677006 4.996852 -3.687469 5.534293 -0.097214 0.052730 -103.072645 -28.724396 121.586420 -1.932256 -55.383089 31.695691 -18.065685 -35.374345 8.344390 28.437771 85.194566 24.174765 -0.288790 -16.585745 0.839589 -0.135864 1.222496 -0.057700 -15.308961 -46.343284 17.444815 174.815864 80.194767 170.254223 -2.075642 -17.696729 1.185899 -0.037412 -0.528548 -0.023644
